<mxfile host="Electron" agent="Mozilla/5.0 (Macintosh; Intel Mac OS X 10_15_7) AppleWebKit/537.36 (KHTML, like Gecko) draw.io/24.7.8 Chrome/128.0.6613.36 Electron/32.0.1 Safari/537.36" version="24.7.8">
  <diagram name="Page-1" id="I766tVJijpLk-QQe6Z4c">
    <mxGraphModel dx="899" dy="836" grid="1" gridSize="10" guides="1" tooltips="1" connect="1" arrows="1" fold="1" page="1" pageScale="1" pageWidth="827" pageHeight="1169" math="0" shadow="0">
      <root>
        <mxCell id="0" />
        <mxCell id="1" parent="0" />
        <mxCell id="XlStGR_MBsB6rGvIgkD5-28" value="" style="rounded=0;whiteSpace=wrap;html=1;fillColor=#d5e8d4;strokeColor=#82b366;" vertex="1" parent="1">
          <mxGeometry x="460" y="385" width="280" height="235" as="geometry" />
        </mxCell>
        <mxCell id="XlStGR_MBsB6rGvIgkD5-27" value="" style="rounded=0;whiteSpace=wrap;html=1;fillColor=#dae8fc;strokeColor=#6c8ebf;" vertex="1" parent="1">
          <mxGeometry x="320" y="210" width="260" height="170" as="geometry" />
        </mxCell>
        <mxCell id="XlStGR_MBsB6rGvIgkD5-26" value="" style="rounded=0;whiteSpace=wrap;html=1;fillColor=#f5f5f5;fontColor=#333333;strokeColor=#666666;" vertex="1" parent="1">
          <mxGeometry x="10" y="360" width="310" height="145" as="geometry" />
        </mxCell>
        <mxCell id="XlStGR_MBsB6rGvIgkD5-1" value="" style="edgeStyle=orthogonalEdgeStyle;rounded=0;orthogonalLoop=1;jettySize=auto;html=1;" edge="1" parent="1" source="XlStGR_MBsB6rGvIgkD5-2">
          <mxGeometry relative="1" as="geometry">
            <mxPoint x="230" y="430" as="targetPoint" />
          </mxGeometry>
        </mxCell>
        <mxCell id="XlStGR_MBsB6rGvIgkD5-2" value="MRF&lt;div&gt;Upscale&lt;/div&gt;&lt;div&gt;Cut&lt;/div&gt;" style="rounded=0;whiteSpace=wrap;html=1;" vertex="1" parent="1">
          <mxGeometry x="80" y="400" width="120" height="60" as="geometry" />
        </mxCell>
        <mxCell id="XlStGR_MBsB6rGvIgkD5-3" value="" style="shape=flexArrow;endArrow=classic;html=1;rounded=0;" edge="1" parent="1">
          <mxGeometry width="50" height="50" relative="1" as="geometry">
            <mxPoint x="20" y="430" as="sourcePoint" />
            <mxPoint x="80" y="430" as="targetPoint" />
          </mxGeometry>
        </mxCell>
        <mxCell id="XlStGR_MBsB6rGvIgkD5-4" value="# Classes" style="text;html=1;align=center;verticalAlign=middle;whiteSpace=wrap;rounded=0;" vertex="1" parent="1">
          <mxGeometry x="10" y="390" width="60" height="30" as="geometry" />
        </mxCell>
        <mxCell id="XlStGR_MBsB6rGvIgkD5-8" style="edgeStyle=orthogonalEdgeStyle;rounded=0;orthogonalLoop=1;jettySize=auto;html=1;entryX=0;entryY=0.5;entryDx=0;entryDy=0;" edge="1" parent="1" source="XlStGR_MBsB6rGvIgkD5-5" target="XlStGR_MBsB6rGvIgkD5-7">
          <mxGeometry relative="1" as="geometry" />
        </mxCell>
        <mxCell id="XlStGR_MBsB6rGvIgkD5-5" value="Map" style="ellipse;whiteSpace=wrap;html=1;rounded=0;" vertex="1" parent="1">
          <mxGeometry x="230" y="390" width="80" height="80" as="geometry" />
        </mxCell>
        <mxCell id="XlStGR_MBsB6rGvIgkD5-9" style="edgeStyle=orthogonalEdgeStyle;rounded=0;orthogonalLoop=1;jettySize=auto;html=1;entryX=0.5;entryY=0;entryDx=0;entryDy=0;" edge="1" parent="1" source="XlStGR_MBsB6rGvIgkD5-6" target="XlStGR_MBsB6rGvIgkD5-7">
          <mxGeometry relative="1" as="geometry" />
        </mxCell>
        <mxCell id="XlStGR_MBsB6rGvIgkD5-6" value="Road Map" style="whiteSpace=wrap;html=1;rounded=0;" vertex="1" parent="1">
          <mxGeometry x="330" y="310" width="120" height="60" as="geometry" />
        </mxCell>
        <mxCell id="XlStGR_MBsB6rGvIgkD5-11" style="edgeStyle=orthogonalEdgeStyle;rounded=0;orthogonalLoop=1;jettySize=auto;html=1;entryX=0;entryY=0.5;entryDx=0;entryDy=0;" edge="1" parent="1" source="XlStGR_MBsB6rGvIgkD5-7" target="XlStGR_MBsB6rGvIgkD5-10">
          <mxGeometry relative="1" as="geometry" />
        </mxCell>
        <mxCell id="XlStGR_MBsB6rGvIgkD5-7" value="" style="shape=orEllipse;perimeter=ellipsePerimeter;whiteSpace=wrap;html=1;backgroundOutline=1;" vertex="1" parent="1">
          <mxGeometry x="375" y="415" width="30" height="30" as="geometry" />
        </mxCell>
        <mxCell id="XlStGR_MBsB6rGvIgkD5-22" style="edgeStyle=orthogonalEdgeStyle;rounded=0;orthogonalLoop=1;jettySize=auto;html=1;entryX=0.5;entryY=0;entryDx=0;entryDy=0;" edge="1" parent="1" source="XlStGR_MBsB6rGvIgkD5-10" target="XlStGR_MBsB6rGvIgkD5-21">
          <mxGeometry relative="1" as="geometry" />
        </mxCell>
        <mxCell id="XlStGR_MBsB6rGvIgkD5-16" style="edgeStyle=orthogonalEdgeStyle;rounded=0;orthogonalLoop=1;jettySize=auto;html=1;entryX=0.5;entryY=0;entryDx=0;entryDy=0;" edge="1" parent="1" source="XlStGR_MBsB6rGvIgkD5-12" target="XlStGR_MBsB6rGvIgkD5-6">
          <mxGeometry relative="1" as="geometry" />
        </mxCell>
        <mxCell id="XlStGR_MBsB6rGvIgkD5-12" value="Database" style="swimlane;fontStyle=0;childLayout=stackLayout;horizontal=1;startSize=30;horizontalStack=0;resizeParent=1;resizeParentMax=0;resizeLast=0;collapsible=1;marginBottom=0;whiteSpace=wrap;html=1;" vertex="1" parent="1">
          <mxGeometry x="479" y="230" width="70" height="120" as="geometry" />
        </mxCell>
        <mxCell id="XlStGR_MBsB6rGvIgkD5-13" value="Roads 1" style="text;strokeColor=none;fillColor=none;align=left;verticalAlign=middle;spacingLeft=4;spacingRight=4;overflow=hidden;points=[[0,0.5],[1,0.5]];portConstraint=eastwest;rotatable=0;whiteSpace=wrap;html=1;" vertex="1" parent="XlStGR_MBsB6rGvIgkD5-12">
          <mxGeometry y="30" width="70" height="30" as="geometry" />
        </mxCell>
        <mxCell id="XlStGR_MBsB6rGvIgkD5-14" value="Roads 2" style="text;strokeColor=none;fillColor=none;align=left;verticalAlign=middle;spacingLeft=4;spacingRight=4;overflow=hidden;points=[[0,0.5],[1,0.5]];portConstraint=eastwest;rotatable=0;whiteSpace=wrap;html=1;" vertex="1" parent="XlStGR_MBsB6rGvIgkD5-12">
          <mxGeometry y="60" width="70" height="30" as="geometry" />
        </mxCell>
        <mxCell id="XlStGR_MBsB6rGvIgkD5-15" value="..." style="text;strokeColor=none;fillColor=none;align=left;verticalAlign=middle;spacingLeft=4;spacingRight=4;overflow=hidden;points=[[0,0.5],[1,0.5]];portConstraint=eastwest;rotatable=0;whiteSpace=wrap;html=1;" vertex="1" parent="XlStGR_MBsB6rGvIgkD5-12">
          <mxGeometry y="90" width="70" height="30" as="geometry" />
        </mxCell>
        <mxCell id="XlStGR_MBsB6rGvIgkD5-17" value="Database" style="swimlane;fontStyle=0;childLayout=stackLayout;horizontal=1;startSize=30;horizontalStack=0;resizeParent=1;resizeParentMax=0;resizeLast=0;collapsible=1;marginBottom=0;whiteSpace=wrap;html=1;" vertex="1" parent="1">
          <mxGeometry x="630" y="490" width="100" height="120" as="geometry" />
        </mxCell>
        <mxCell id="XlStGR_MBsB6rGvIgkD5-18" value="Parameters 1" style="text;strokeColor=none;fillColor=none;align=left;verticalAlign=middle;spacingLeft=4;spacingRight=4;overflow=hidden;points=[[0,0.5],[1,0.5]];portConstraint=eastwest;rotatable=0;whiteSpace=wrap;html=1;" vertex="1" parent="XlStGR_MBsB6rGvIgkD5-17">
          <mxGeometry y="30" width="100" height="30" as="geometry" />
        </mxCell>
        <mxCell id="XlStGR_MBsB6rGvIgkD5-19" value="Parameters 2" style="text;strokeColor=none;fillColor=none;align=left;verticalAlign=middle;spacingLeft=4;spacingRight=4;overflow=hidden;points=[[0,0.5],[1,0.5]];portConstraint=eastwest;rotatable=0;whiteSpace=wrap;html=1;" vertex="1" parent="XlStGR_MBsB6rGvIgkD5-17">
          <mxGeometry y="60" width="100" height="30" as="geometry" />
        </mxCell>
        <mxCell id="XlStGR_MBsB6rGvIgkD5-20" value="..." style="text;strokeColor=none;fillColor=none;align=left;verticalAlign=middle;spacingLeft=4;spacingRight=4;overflow=hidden;points=[[0,0.5],[1,0.5]];portConstraint=eastwest;rotatable=0;whiteSpace=wrap;html=1;" vertex="1" parent="XlStGR_MBsB6rGvIgkD5-17">
          <mxGeometry y="90" width="100" height="30" as="geometry" />
        </mxCell>
        <mxCell id="XlStGR_MBsB6rGvIgkD5-25" style="edgeStyle=orthogonalEdgeStyle;rounded=0;orthogonalLoop=1;jettySize=auto;html=1;entryX=0.5;entryY=0;entryDx=0;entryDy=0;" edge="1" parent="1" source="XlStGR_MBsB6rGvIgkD5-21" target="XlStGR_MBsB6rGvIgkD5-24">
          <mxGeometry relative="1" as="geometry" />
        </mxCell>
        <mxCell id="XlStGR_MBsB6rGvIgkD5-21" value="" style="shape=sumEllipse;perimeter=ellipsePerimeter;whiteSpace=wrap;html=1;backgroundOutline=1;" vertex="1" parent="1">
          <mxGeometry x="494" y="545" width="40" height="40" as="geometry" />
        </mxCell>
        <mxCell id="XlStGR_MBsB6rGvIgkD5-23" style="edgeStyle=orthogonalEdgeStyle;rounded=0;orthogonalLoop=1;jettySize=auto;html=1;entryX=1;entryY=0.5;entryDx=0;entryDy=0;" edge="1" parent="1" source="XlStGR_MBsB6rGvIgkD5-19" target="XlStGR_MBsB6rGvIgkD5-21">
          <mxGeometry relative="1" as="geometry" />
        </mxCell>
        <mxCell id="XlStGR_MBsB6rGvIgkD5-31" style="rounded=0;orthogonalLoop=1;jettySize=auto;html=1;" edge="1" parent="1" source="XlStGR_MBsB6rGvIgkD5-24" target="XlStGR_MBsB6rGvIgkD5-30">
          <mxGeometry relative="1" as="geometry" />
        </mxCell>
        <mxCell id="XlStGR_MBsB6rGvIgkD5-24" value="Sensed Image" style="ellipse;whiteSpace=wrap;html=1;rounded=0;" vertex="1" parent="1">
          <mxGeometry x="474" y="650" width="80" height="80" as="geometry" />
        </mxCell>
        <mxCell id="XlStGR_MBsB6rGvIgkD5-29" value="" style="endArrow=classic;html=1;rounded=0;exitX=0.15;exitY=0.813;exitDx=0;exitDy=0;exitPerimeter=0;" edge="1" parent="1" source="XlStGR_MBsB6rGvIgkD5-10" target="XlStGR_MBsB6rGvIgkD5-30">
          <mxGeometry width="50" height="50" relative="1" as="geometry">
            <mxPoint x="440" y="460" as="sourcePoint" />
            <mxPoint x="280" y="620" as="targetPoint" />
          </mxGeometry>
        </mxCell>
        <mxCell id="XlStGR_MBsB6rGvIgkD5-30" value="Training database" style="shape=cylinder3;whiteSpace=wrap;html=1;boundedLbl=1;backgroundOutline=1;size=15;" vertex="1" parent="1">
          <mxGeometry x="250" y="580" width="60" height="80" as="geometry" />
        </mxCell>
        <mxCell id="XlStGR_MBsB6rGvIgkD5-10" value="Map with Roads" style="ellipse;whiteSpace=wrap;html=1;rounded=0;" vertex="1" parent="1">
          <mxGeometry x="474" y="390" width="80" height="80" as="geometry" />
        </mxCell>
      </root>
    </mxGraphModel>
  </diagram>
</mxfile>
